# xmcd
#
# Track frame offsets: 
#        150
#        16037
#        32163
#        44582
#        58360
#        73890
#        90100
#        104127
#        117450
#        128743
#        139335
#        154093
#        168448
#        185385
#        203970
#        220130
#        231240
#        249478
#        266540
#        283200
#        299718
#        317793
#        333428
#
# Disc length: 4606 seconds
#
# Revision: 0
# Processed by: cddbd v1.5.2PL0 Copyright (c) Steve Scherf et al.
# Submitted via: ExactAudioCopyFreeDBPlugin 1.0
#
DISCID=6e11fc17
DTITLE=美樹克彦 - Golden ★ Best 1
DYEAR=1900
DGENRE=
TTITLE0=花はおそかった
TTITLE1=回転禁止の青春さ
TTITLE2=俺の涙は俺がふく
TTITLE3=燃えろ青春
TTITLE4=6番のロック
TTITLE5=夕陽に叫ぶ歌
TTITLE6=赤いヘルメット
TTITLE7=君の名を呼んだりしない
TTITLE8=行こうぜ東京
TTITLE9=恋の台風第一号
TTITLE10=君は俺の花
TTITLE11=狂った時計
TTITLE12=想い出の恋人
TTITLE13=手紙
TTITLE14=白いワゴン
TTITLE15=小枝のようなかわいい娘
TTITLE16=花散る都
TTITLE17=愛しているんだ！
TTITLE18=海は青かった
TTITLE19=愛の日をありがとう
TTITLE20=母さんよせよ
TTITLE21=貴女がえらんだ僕だから
TTITLE22=たまらない瞬間 (モマンシュプレーム)
EXTD=
EXTT0=
EXTT1=
EXTT2=
EXTT3=
EXTT4=
EXTT5=
EXTT6=
EXTT7=
EXTT8=
EXTT9=
EXTT10=
EXTT11=
EXTT12=
EXTT13=
EXTT14=
EXTT15=
EXTT16=
EXTT17=
EXTT18=
EXTT19=
EXTT20=
EXTT21=
EXTT22=
PLAYORDER=
